<svg xmlns="http://www.w3.org/2000/svg" width="72" height="72"><path d="M61.922 35.566a4.5 4.5 0 0 0-3.559-4.504 4.49 4.49 0 0 0-5.082 2.668h-12.86a4.49 4.49 0 0 0-5.07-2.535 4.49 4.49 0 0 0-3.507 4.45 4.49 4.49 0 0 0 3.652 4.335 4.48 4.48 0 0 0 4.98-2.699h12.805a4.52 4.52 0 0 0 2.16 2.32 19.56 19.56 0 0 1-15.25 15.04 4.492 4.492 0 0 0-8.344 2.797 4.492 4.492 0 0 0 8.766.738A23.12 23.12 0 0 0 59.04 39.75a4.495 4.495 0 0 0 2.883-4.184m0 0" style="stroke:none;fill-rule:nonzero;fill:#fff;fill-opacity:1"/><path d="M28.54 57.09c-.22 0-.442-.043-.645-.125A23.035 23.035 0 0 1 13.53 32.8 23.04 23.04 0 0 1 33.22 12.738a23.044 23.044 0 0 1 24.433 13.903 1.773 1.773 0 0 1-.96 2.316A1.77 1.77 0 0 1 54.374 28a19.52 19.52 0 0 0-20.691-11.852 19.524 19.524 0 0 0-16.715 17.008 19.52 19.52 0 0 0 12.207 20.485 1.774 1.774 0 0 1 1.078 1.98 1.77 1.77 0 0 1-1.727 1.445Zm0 0" style="stroke:none;fill-rule:nonzero;fill:#fff;fill-opacity:1"/></svg>